<svg width="140" height="128" viewBox="0 0 140 128" fill="none" xmlns="http://www.w3.org/2000/svg">
<g filter="url(#filter0_d_103_7)">
<rect x="4" width="132" height="120" rx="15" fill="#212A2C"/>
</g>
<g filter="url(#filter1_i_103_7)">
<path d="M17.436 97L17.436 84.9215L39.766 59.039L18.3495 35.897V24.529H70.419V37.115H46.5665C45.2132 37.115 43.6907 37.0812 41.999 37.0135C40.375 36.9458 38.6157 36.8105 36.721 36.6075L54.8895 56.7045V60.5615L33.676 84.9215C36.0443 84.7185 38.2097 84.5832 40.172 84.5155C42.202 84.3802 44.3673 84.3125 46.668 84.3125H71.3325V97H17.436Z" fill="white"/>
</g>
<g filter="url(#filter2_i_103_7)">
<path d="M71.8975 97V24.4902H98.7261C106.525 24.4902 112.567 26.1499 116.854 29.4692C121.172 32.7563 123.331 37.3809 123.331 43.3428C123.331 46.9844 122.477 50.207 120.769 53.0107C119.061 55.7822 116.757 57.8931 113.856 59.3433C117.981 60.5679 121.188 62.6787 123.476 65.6758C125.796 68.6406 126.957 72.2822 126.957 76.6006C126.957 80.7256 125.941 84.3188 123.911 87.3804C121.913 90.4097 119.077 92.7783 115.403 94.4863C111.762 96.1621 107.476 97 102.545 97H71.8975ZM86.7861 54.8477H97.9043C101.224 54.8477 103.85 54.0581 105.784 52.479C107.717 50.8999 108.684 48.7568 108.684 46.0498C108.684 43.4072 107.701 41.3286 105.735 39.814C103.802 38.2671 101.111 37.4937 97.6626 37.4937H86.7861V54.8477ZM86.7861 83.9966H98.8228C101.465 83.9966 103.753 83.626 105.687 82.8848C107.621 82.1113 109.103 81.0317 110.134 79.646C111.198 78.228 111.729 76.5845 111.729 74.7153C111.729 72.8462 111.246 71.251 110.279 69.9297C109.345 68.6084 107.975 67.6094 106.17 66.9326C104.366 66.2236 102.223 65.8691 99.7412 65.8691H86.7861V83.9966Z" fill="white"/>
</g>
<defs>
<filter id="filter0_d_103_7" x="0" y="0" width="140" height="128" filterUnits="userSpaceOnUse" color-interpolation-filters="sRGB">
<feFlood flood-opacity="0" result="BackgroundImageFix"/>
<feColorMatrix in="SourceAlpha" type="matrix" values="0 0 0 0 0 0 0 0 0 0 0 0 0 0 0 0 0 0 127 0" result="hardAlpha"/>
<feOffset dy="4"/>
<feGaussianBlur stdDeviation="2"/>
<feComposite in2="hardAlpha" operator="out"/>
<feColorMatrix type="matrix" values="0 0 0 0 0 0 0 0 0 0 0 0 0 0 0 0 0 0 0.25 0"/>
<feBlend mode="normal" in2="BackgroundImageFix" result="effect1_dropShadow_103_7"/>
<feBlend mode="normal" in="SourceGraphic" in2="effect1_dropShadow_103_7" result="shape"/>
</filter>
<filter id="filter1_i_103_7" x="17.436" y="24.529" width="53.8965" height="76.471" filterUnits="userSpaceOnUse" color-interpolation-filters="sRGB">
<feFlood flood-opacity="0" result="BackgroundImageFix"/>
<feBlend mode="normal" in="SourceGraphic" in2="BackgroundImageFix" result="shape"/>
<feColorMatrix in="SourceAlpha" type="matrix" values="0 0 0 0 0 0 0 0 0 0 0 0 0 0 0 0 0 0 127 0" result="hardAlpha"/>
<feOffset dy="4"/>
<feGaussianBlur stdDeviation="2"/>
<feComposite in2="hardAlpha" operator="arithmetic" k2="-1" k3="1"/>
<feColorMatrix type="matrix" values="0 0 0 0 0 0 0 0 0 0 0 0 0 0 0 0 0 0 0.25 0"/>
<feBlend mode="normal" in2="shape" result="effect1_innerShadow_103_7"/>
</filter>
<filter id="filter2_i_103_7" x="71.8975" y="24.4902" width="55.0591" height="76.5098" filterUnits="userSpaceOnUse" color-interpolation-filters="sRGB">
<feFlood flood-opacity="0" result="BackgroundImageFix"/>
<feBlend mode="normal" in="SourceGraphic" in2="BackgroundImageFix" result="shape"/>
<feColorMatrix in="SourceAlpha" type="matrix" values="0 0 0 0 0 0 0 0 0 0 0 0 0 0 0 0 0 0 127 0" result="hardAlpha"/>
<feOffset dy="4"/>
<feGaussianBlur stdDeviation="2"/>
<feComposite in2="hardAlpha" operator="arithmetic" k2="-1" k3="1"/>
<feColorMatrix type="matrix" values="0 0 0 0 0 0 0 0 0 0 0 0 0 0 0 0 0 0 0.25 0"/>
<feBlend mode="normal" in2="shape" result="effect1_innerShadow_103_7"/>
</filter>
</defs>
</svg>
